<svg width="76" height="23" viewBox="0 0 76 23" fill="none" xmlns="http://www.w3.org/2000/svg">
<path d="M11.3016 12.2376C16.6432 12.0663 21.9848 11.9394 27.3327 11.8442C32.6743 11.7364 38.016 11.6666 43.3639 11.6412C48.7055 11.6159 54.0471 11.6856 59.3887 11.6222C64.7304 11.5334 70.072 11.508 75.4199 11.3113V11.2162C70.0783 10.8673 64.7367 10.7531 59.3887 10.6706C54.0408 10.6072 48.6928 10.7531 43.3512 10.88C38.0033 11.0068 32.6617 11.1718 27.32 11.3684C21.9784 11.5841 16.6368 11.8442 11.3016 12.1424V12.2376Z" fill="url(#paint0_linear_983_146865)"/>
<path d="M13.4967 8.51953C10.4516 11.1396 7.89502 12.3576 3.99983 13.3346C7.3431 13.6201 10.6483 14.4194 13.7505 15.7009C13.5729 12.9032 13.4967 8.51953 13.4967 8.51953Z" fill="#28272F" stroke="url(#paint1_linear_983_146865)" stroke-miterlimit="10"/>
<path d="M22.5493 11.8381C22.5493 12.5169 22.2004 13.1703 21.6865 13.5827C21.1663 13.9887 20.5066 14.1727 19.8848 14.1092C19.2631 14.0585 18.6795 13.7603 18.2862 13.2972C17.8928 12.8341 17.7025 12.2314 17.7533 11.6478C17.804 11.0641 18.0958 10.5186 18.5336 10.1633C18.965 9.79534 19.5105 9.61136 20.0688 9.60502C20.6207 9.60502 21.2171 9.75093 21.7182 10.1443C22.2131 10.5249 22.562 11.1656 22.5493 11.8444V11.8381ZM22.6445 11.8381C22.6889 11.1466 22.5366 10.4107 22.0989 9.78265C21.6738 9.16094 20.9316 8.69149 20.1132 8.63439C19.3012 8.56461 18.4701 8.88815 17.8928 9.45277C17.3219 10.0237 16.992 10.8167 16.992 11.597C16.9793 12.3837 17.2965 13.1576 17.8357 13.7032C18.3686 14.2551 19.1236 14.566 19.8658 14.5723C20.6144 14.5723 21.3376 14.2488 21.8197 13.7222C22.3146 13.2084 22.5874 12.5296 22.6381 11.8381H22.6445Z" fill="url(#paint2_linear_983_146865)"/>
<path d="M21.3314 3.25406C21.3124 3.71717 21.0523 4.1549 20.6589 4.38328C20.272 4.62435 19.7771 4.68145 19.3584 4.52285C18.4576 4.21199 18.2863 3.07643 18.3688 2.21365C18.4322 1.76957 18.6035 1.33184 18.9017 1.01464C19.1935 0.684755 19.6058 0.481748 20.0372 0.411964C20.919 0.247022 21.7501 0.77357 22.4099 1.39528C23.7357 2.6831 24.6493 4.37694 25.3344 6.10884C26.0005 7.85343 26.4446 9.70586 26.451 11.5456C26.451 13.3727 25.88 15.168 25.0426 16.8047C24.6176 17.6168 24.1354 18.4098 23.5708 19.1266C22.9999 19.8308 22.3781 20.5287 21.6486 20.9854C21.2933 21.2075 20.8873 21.3534 20.6018 21.2963C20.2148 21.2075 19.8659 20.9918 19.5805 20.6936C19.0095 20.0973 18.8192 19.1203 19.1554 18.3146C19.3204 17.9149 19.6185 17.5343 20.0309 17.363C20.4305 17.1854 20.919 17.1854 21.325 17.3757C21.7311 17.5533 22.0546 17.934 22.1054 18.3844C22.1498 18.8348 21.9404 19.2852 21.6486 19.6468L21.7247 19.7103C22.0356 19.3487 22.2893 18.8856 22.2576 18.3717C22.2259 17.8578 21.8706 17.4011 21.4139 17.1854C20.9634 16.957 20.4115 16.938 19.9357 17.1283C19.701 17.2234 19.4853 17.3757 19.3013 17.5533C19.1173 17.7246 18.9461 17.9213 18.8192 18.1433C18.2863 19.0442 18.4068 20.2685 19.0666 21.125C19.3901 21.5627 19.8723 21.8926 20.4052 22.0449C21.0649 22.2035 21.6169 21.956 22.0736 21.7213C22.9808 21.2011 23.704 20.4969 24.3257 19.7293C24.9411 18.9553 25.493 18.137 25.9181 17.2488C26.7872 15.4915 27.3264 13.5249 27.2566 11.5329C27.1742 9.55995 26.673 7.65676 25.9244 5.87411C25.1631 4.10415 24.1862 2.38493 22.7271 1.04636C22.3591 0.722818 21.9468 0.430996 21.4773 0.22799C21.0205 0.0249831 20.4623 -0.0638323 19.9674 0.0503589C19.4663 0.145518 18.9841 0.40562 18.6542 0.80529C18.3117 1.19227 18.1404 1.69979 18.0896 2.18827C18.0452 2.68945 18.1213 3.17793 18.2673 3.64738C18.4259 4.12318 18.8002 4.54822 19.2886 4.70048C19.7708 4.85908 20.31 4.77661 20.7287 4.50382C21.1538 4.23737 21.4139 3.74889 21.4202 3.2604H21.325L21.3314 3.25406Z" fill="url(#paint3_linear_983_146865)"/>
<defs>
<linearGradient id="paint0_linear_983_146865" x1="43.3607" y1="10.6553" x2="43.3607" y2="12.2376" gradientUnits="userSpaceOnUse">
<stop stop-color="#FFF1DE"/>
<stop offset="1" stop-color="#8C6742"/>
</linearGradient>
<linearGradient id="paint1_linear_983_146865" x1="8.87516" y1="8.51953" x2="8.87516" y2="15.7009" gradientUnits="userSpaceOnUse">
<stop stop-color="#FFF1DE"/>
<stop offset="1" stop-color="#8C6742"/>
</linearGradient>
<linearGradient id="paint2_linear_983_146865" x1="19.8217" y1="8.625" x2="19.8217" y2="14.5723" gradientUnits="userSpaceOnUse">
<stop stop-color="#FFF1DE"/>
<stop offset="1" stop-color="#8C6742"/>
</linearGradient>
<linearGradient id="paint3_linear_983_146865" x1="22.6699" y1="0" x2="22.6699" y2="22.095" gradientUnits="userSpaceOnUse">
<stop stop-color="#FFF1DE"/>
<stop offset="1" stop-color="#8C6742"/>
</linearGradient>
</defs>
</svg>
