<svg width="75" height="23" viewBox="0 0 75 23" fill="none" xmlns="http://www.w3.org/2000/svg">
<path d="M64.1184 12.2376C58.7768 12.0663 53.4352 11.9394 48.0872 11.8442C42.7456 11.7364 37.404 11.6666 32.056 11.6412C26.7144 11.6159 21.3728 11.6856 16.0312 11.6222C10.6896 11.5334 5.34796 11.508 0 11.3113V11.2162C5.34161 10.8673 10.6832 10.7531 16.0312 10.6706C21.3791 10.6072 26.7271 10.7531 32.0687 10.88C37.4167 11.0068 42.7583 11.1718 48.0999 11.3684C53.4415 11.5841 58.7831 11.8442 64.1184 12.1424V12.2376Z" fill="url(#paint0_linear_983_146860)"/>
<path d="M61.9232 8.51953C64.9683 11.1396 67.5249 12.3576 71.4201 13.3346C68.0768 13.6201 64.7716 14.4194 61.6694 15.7009C61.8471 12.9032 61.9232 8.51953 61.9232 8.51953Z" fill="#28272F" stroke="url(#paint1_linear_983_146860)" stroke-miterlimit="10"/>
<path d="M52.8706 11.8381C52.8706 12.5169 53.2195 13.1703 53.7334 13.5827C54.2536 13.9887 54.9134 14.1727 55.5351 14.1092C56.1568 14.0585 56.7404 13.7603 57.1338 13.2972C57.5271 12.8341 57.7174 12.2314 57.6666 11.6478C57.6159 11.0641 57.3241 10.5186 56.8863 10.1633C56.455 9.79534 55.9094 9.61136 55.3511 9.60502C54.7992 9.60502 54.2028 9.75093 53.7017 10.1443C53.2068 10.5249 52.8579 11.1656 52.8706 11.8444V11.8381ZM52.7755 11.8381C52.7311 11.1466 52.8833 10.4107 53.321 9.78265C53.7461 9.16094 54.4883 8.69149 55.3067 8.63439C56.1187 8.56461 56.9498 8.88815 57.5271 9.45277C58.098 10.0237 58.4279 10.8167 58.4279 11.597C58.4406 12.3837 58.1234 13.1576 57.5842 13.7032C57.0513 14.2551 56.2964 14.566 55.5541 14.5723C54.8055 14.5723 54.0823 14.2488 53.6002 13.7222C53.1054 13.2084 52.8326 12.5296 52.7818 11.8381H52.7755Z" fill="url(#paint2_linear_983_146860)"/>
<path d="M54.0885 3.25406C54.1076 3.71717 54.3677 4.1549 54.761 4.38328C55.148 4.62435 55.6428 4.68145 56.0615 4.52285C56.9623 4.21199 57.1336 3.07643 57.0512 2.21365C56.9877 1.76957 56.8164 1.33184 56.5183 1.01464C56.2264 0.684755 55.8141 0.481748 55.3827 0.411964C54.5009 0.247022 53.6698 0.77357 53.0101 1.39528C51.6842 2.6831 50.7706 4.37694 50.0855 6.10884C49.4194 7.85343 48.9753 9.70586 48.969 11.5456C48.969 13.3727 49.5399 15.168 50.3773 16.8047C50.8024 17.6168 51.2845 18.4098 51.8491 19.1266C52.4201 19.8308 53.0418 20.5287 53.7713 20.9854C54.1266 21.2075 54.5326 21.3534 54.8181 21.2963C55.2051 21.2075 55.554 20.9918 55.8395 20.6936C56.4104 20.0973 56.6007 19.1203 56.2645 18.3146C56.0996 17.9149 55.8014 17.5343 55.389 17.363C54.9894 17.1854 54.5009 17.1854 54.0949 17.3757C53.6889 17.5533 53.3653 17.934 53.3146 18.3844C53.2702 18.8348 53.4795 19.2852 53.7713 19.6468L53.6952 19.7103C53.3844 19.3487 53.1306 18.8856 53.1623 18.3717C53.194 17.8578 53.5493 17.4011 54.0061 17.1854C54.4565 16.957 55.0084 16.938 55.4842 17.1283C55.7189 17.2234 55.9346 17.3757 56.1186 17.5533C56.3026 17.7246 56.4739 17.9213 56.6007 18.1433C57.1336 19.0442 57.0131 20.2685 56.3533 21.125C56.0298 21.5627 55.5476 21.8926 55.0148 22.0449C54.355 22.2035 53.8031 21.956 53.3463 21.7213C52.4391 21.2011 51.7159 20.4969 51.0942 19.7293C50.4788 18.9553 49.9269 18.137 49.5019 17.2488C48.6327 15.4915 48.0935 13.5249 48.1633 11.5329C48.2457 9.55995 48.7469 7.65676 49.4955 5.87411C50.2568 4.10415 51.2338 2.38493 52.6929 1.04636C53.0608 0.722818 53.4732 0.430996 53.9426 0.22799C54.3994 0.0249831 54.9577 -0.0638323 55.4525 0.0503589C55.9537 0.145518 56.4358 0.40562 56.7657 0.80529C57.1083 1.19227 57.2795 1.69979 57.3303 2.18827C57.3747 2.68945 57.2986 3.17793 57.1527 3.64738C56.9941 4.12318 56.6198 4.54822 56.1313 4.70048C55.6491 4.85908 55.1099 4.77661 54.6912 4.50382C54.2662 4.23737 54.0061 3.74889 53.9997 3.2604H54.0949L54.0885 3.25406Z" fill="url(#paint3_linear_983_146860)"/>
<defs>
<linearGradient id="paint0_linear_983_146860" x1="32.0592" y1="10.6553" x2="32.0592" y2="12.2376" gradientUnits="userSpaceOnUse">
<stop stop-color="#FFF1DE"/>
<stop offset="1" stop-color="#8C6742"/>
</linearGradient>
<linearGradient id="paint1_linear_983_146860" x1="66.5448" y1="8.51953" x2="66.5448" y2="15.7009" gradientUnits="userSpaceOnUse">
<stop stop-color="#FFF1DE"/>
<stop offset="1" stop-color="#8C6742"/>
</linearGradient>
<linearGradient id="paint2_linear_983_146860" x1="55.5982" y1="8.625" x2="55.5982" y2="14.5723" gradientUnits="userSpaceOnUse">
<stop stop-color="#FFF1DE"/>
<stop offset="1" stop-color="#8C6742"/>
</linearGradient>
<linearGradient id="paint3_linear_983_146860" x1="52.7501" y1="0" x2="52.7501" y2="22.095" gradientUnits="userSpaceOnUse">
<stop stop-color="#FFF1DE"/>
<stop offset="1" stop-color="#8C6742"/>
</linearGradient>
</defs>
</svg>
