<svg width="36" height="46" viewBox="0 0 36 46" fill="none" xmlns="http://www.w3.org/2000/svg">
<path fillRule="evenodd" clipRule="evenodd" d="M19.9048 0.745064C19.4923 0.317398 18.9329 0.0771484 18.3496 0.0771484C17.7663 0.0771484 17.2069 0.317398 16.7944 0.745064C15.0127 2.59287 12.4545 3.68786 9.79286 4.25817C7.14885 4.82392 4.63022 4.81936 3.19384 4.65283C2.88642 4.61754 2.57529 4.64989 2.28074 4.74775C1.98619 4.84562 1.71486 5.0068 1.48445 5.22079C1.25404 5.43477 1.06973 5.69674 0.943556 5.9896C0.817381 6.28245 0.752176 6.59961 0.752197 6.92038V27.4515C0.752197 30.4171 2.00161 33.0383 3.62057 35.1963C5.24393 37.3589 7.35342 39.2181 9.37272 40.7146C11.9027 42.5698 14.5987 44.1687 17.4235 45.4893L17.4631 45.5075L17.4763 45.5144H17.4829C17.7566 45.6365 18.0514 45.6996 18.3494 45.7C18.6473 45.7004 18.9423 45.638 19.2163 45.5166L18.3496 43.4202C19.2163 45.5189 19.2185 45.5166 19.2185 45.5166L19.2229 45.5144L19.2339 45.5075L19.2779 45.4893L19.4208 45.4231C20.2156 45.0475 21.0005 44.6497 21.7745 44.23C23.6991 43.1887 25.5539 42.0142 27.3265 40.7146C29.3458 39.2181 31.4553 37.3612 33.0786 35.1963C34.6976 33.0406 35.947 30.4171 35.947 27.4515V6.92038C35.947 6.59961 35.8818 6.28245 35.7556 5.9896C35.6295 5.69674 35.4452 5.43477 35.2147 5.22079C34.9843 5.0068 34.713 4.84562 34.4185 4.74775C34.1239 4.64989 33.8128 4.61754 33.5054 4.65283C32.069 4.81936 29.5503 4.82392 26.9063 4.25817C24.2447 3.68786 21.6865 2.59287 19.9048 0.745064Z" fill="url(#paint0_linear_1038_12680)"/>
<path d="M19.1385 43.465C18.8889 43.5751 18.6203 43.6316 18.3488 43.6313C18.0774 43.6309 17.8089 43.5737 17.5596 43.4629H17.5536L17.5415 43.4567L17.5055 43.4402C14.9323 42.2428 12.4764 40.793 10.1718 39.1109C8.33233 37.754 6.41074 36.0682 4.93197 34.1073C3.45722 32.1505 2.31909 29.7738 2.31909 27.0848V8.46863C2.31907 8.17778 2.37847 7.89021 2.49341 7.62466C2.60834 7.35912 2.77623 7.12159 2.98612 6.92756C3.19601 6.73354 3.44317 6.58739 3.71148 6.49865C3.97979 6.40991 4.26321 6.38058 4.54325 6.41257C5.85169 6.56357 8.14598 6.56771 10.5545 6.05473C12.979 5.53761 15.3094 4.54475 16.9324 2.86929C17.3082 2.48151 17.8177 2.26367 18.349 2.26367C18.8804 2.26367 19.3899 2.48151 19.7657 2.86929C21.3887 4.54475 23.7191 5.53761 26.1436 6.05473C28.5521 6.56771 30.8464 6.56357 32.1548 6.41257C32.4349 6.38058 32.7183 6.40991 32.9866 6.49865C33.2549 6.58739 33.5021 6.73354 33.712 6.92756C33.9219 7.12159 34.0898 7.35912 34.2047 7.62466C34.3196 7.89021 34.379 8.17778 34.379 8.46863V27.0848C34.379 29.7738 33.2409 32.1526 31.7661 34.1073C30.2874 36.0702 28.3658 37.754 26.5263 39.1109C24.9117 40.2893 23.222 41.3542 21.4689 42.2984C20.7638 42.6789 20.0489 43.0396 19.3249 43.3802L19.1946 43.4402L19.1546 43.4567L19.1445 43.4629L19.1405 43.465" stroke="black" stroke-width="1.03419"/>
<path d="M7.57277 22.6111C13.4367 20.0561 17.3474 18.3715 19.3048 17.5571C24.8919 15.2335 26.052 14.83 26.8087 14.8166C26.9763 14.8132 27.3474 14.8546 27.5888 15.0513C27.7922 15.2156 27.8481 15.4391 27.8749 15.5956C27.9017 15.7521 27.9353 16.1086 27.9084 16.3869C27.6067 19.5688 26.2957 27.2885 25.6284 30.8515C25.3468 32.3581 24.7924 32.8633 24.2537 32.9136C23.0858 33.0209 22.1995 32.1424 21.0684 31.4003C19.2969 30.2391 18.2966 29.5159 16.5777 28.3838C14.5916 27.075 15.8792 26.3552 17.0113 25.1795C17.3075 24.8721 22.4543 20.1903 22.5549 19.7656C22.5661 19.7119 22.5784 19.5141 22.461 19.4101C22.3437 19.3051 22.1704 19.3408 22.0441 19.3699C21.866 19.4101 19.0376 21.2796 13.5589 24.9783C12.7549 25.5297 12.0277 25.7983 11.3773 25.7841C10.6586 25.7685 9.27607 25.3784 8.25006 25.0442C6.98935 24.634 5.98794 24.4183 6.07511 23.722C6.12057 23.3599 6.61978 22.9896 7.57277 22.6111Z" fill="black"/>
<defs>
<linearGradient id="paint0_linear_1038_12680" x1="18.372" y1="0.0771484" x2="18.3719" y2="45.7" gradientUnits="userSpaceOnUse">
<stop stop-color="#E4D9BD"/>
<stop offset="1" stop-color="#AA8246"/>
</linearGradient>
</defs>
</svg>
