<svg width="36" height="46" viewBox="0 0 36 46" fill="none" xmlns="http://www.w3.org/2000/svg">
<path fillRule="evenodd" clipRule="evenodd" d="M19.2055 0.745064C18.793 0.317398 18.2337 0.0771484 17.6504 0.0771484C17.0671 0.0771484 16.5077 0.317398 16.0952 0.745064C14.3135 2.59287 11.7552 3.68786 9.09364 4.25817C6.44963 4.82392 3.93101 4.81936 2.49462 4.65283C2.1872 4.61754 1.87607 4.64989 1.58152 4.74775C1.28698 4.84562 1.01564 5.0068 0.785232 5.22079C0.554821 5.43477 0.370512 5.69674 0.244337 5.9896C0.118163 6.28245 0.0529574 6.59961 0.0529785 6.92038V27.4515C0.0529785 30.4171 1.30239 33.0383 2.92135 35.1963C4.54471 37.3589 6.6542 39.2181 8.67351 40.7146C11.2035 42.5698 13.8995 44.1687 16.7243 45.4893L16.7639 45.5075L16.7771 45.5144H16.7837C17.0574 45.6365 17.3522 45.6996 17.6502 45.7C17.9481 45.7004 18.243 45.638 18.5171 45.5166L17.6504 43.4202C18.5171 45.5189 18.5193 45.5166 18.5193 45.5166L18.5237 45.5144L18.5346 45.5075L18.5786 45.4893L18.7216 45.4231C19.5164 45.0475 20.3012 44.6497 21.0753 44.23C22.9999 43.1887 24.8547 42.0142 26.6273 40.7146C28.6466 39.2181 30.756 37.3612 32.3794 35.1963C33.9984 33.0406 35.2478 30.4171 35.2478 27.4515V6.92038C35.2478 6.59961 35.1826 6.28245 35.0564 5.9896C34.9302 5.69674 34.7459 5.43477 34.5155 5.22079C34.2851 5.0068 34.0138 4.84562 33.7192 4.74775C33.4247 4.64989 33.1136 4.61754 32.8061 4.65283C31.3698 4.81936 28.8511 4.82392 26.2071 4.25817C23.5455 3.68786 20.9873 2.59287 19.2055 0.745064Z" fill="url(#paint0_linear_1038_12675)"/>
<path d="M18.4398 43.464C18.1902 43.5741 17.9215 43.6307 17.6501 43.6303C17.3787 43.63 17.1102 43.5727 16.8608 43.462H16.8548L16.8428 43.4558L16.8067 43.4392C14.2335 42.2418 11.7777 40.792 9.47304 39.1099C7.6336 37.753 5.71201 36.0672 4.23324 34.1063C2.75849 32.1495 1.62036 29.7729 1.62036 27.0838V8.46765C1.62034 8.17681 1.67974 7.88923 1.79468 7.62369C1.90961 7.35814 2.0775 7.12061 2.28739 6.92658C2.49728 6.73256 2.74444 6.58641 3.01275 6.49767C3.28106 6.40893 3.56448 6.3796 3.84452 6.4116C5.15296 6.56259 7.44725 6.56673 9.85575 6.05375C12.2803 5.53664 14.6106 4.54377 16.2337 2.86831C16.6094 2.48054 17.119 2.2627 17.6503 2.2627C18.1816 2.2627 18.6912 2.48054 19.067 2.86831C20.69 4.54377 23.0204 5.53664 25.4449 6.05375C27.8534 6.56673 30.1477 6.56259 31.4561 6.4116C31.7361 6.3796 32.0196 6.40893 32.2879 6.49767C32.5562 6.58641 32.8034 6.73256 33.0132 6.92658C33.2231 7.12061 33.391 7.35814 33.506 7.62369C33.6209 7.88923 33.6803 8.17681 33.6803 8.46765V27.0838C33.6803 29.7729 32.5421 32.1516 31.0674 34.1063C29.5886 36.0693 27.667 37.753 25.8276 39.1099C24.2129 40.2883 22.5233 41.3532 20.7701 42.2974C20.0651 42.6779 19.3501 43.0387 18.6261 43.3792L18.4959 43.4392L18.4558 43.4558L18.4458 43.462L18.4418 43.464" stroke="black" stroke-width="1.03419"/>
<path d="M26.1289 10.3623H30.1727L21.3389 20.4157L31.7311 34.0949H23.5935L17.2213 25.7977L9.92878 34.0949H5.88105L15.3306 23.3427L5.36157 10.3623H13.7049L19.4666 17.9462L26.1289 10.3623ZM24.7102 31.6847H26.9516L12.4866 12.6459H10.0817L24.7102 31.6847Z" fill="black"/>
<defs>
<linearGradient id="paint0_linear_1038_12675" x1="17.6727" y1="0.0771484" x2="17.6727" y2="45.7" gradientUnits="userSpaceOnUse">
<stop stop-color="#E4D9BD"/>
<stop offset="1" stop-color="#AA8246"/>
</linearGradient>
</defs>
</svg>
